<svg xmlns="http://www.w3.org/2000/svg" width="153.686" height="40.685" viewBox="0 0 153.686 40.685">
  <path id="Caminho_2" data-name="Caminho 2" d="M-22.568,15.731H-9.893V23.2H-32.244V-16.522h9.676Zm36.1,7.865a20.732,20.732,0,0,1-10.27-2.6,19.458,19.458,0,0,1-7.413-7.271,20.322,20.322,0,0,1-2.744-10.5A20.171,20.171,0,0,1-4.149-7.242a19.519,19.519,0,0,1,7.413-7.243,20.732,20.732,0,0,1,10.27-2.6,20.732,20.732,0,0,1,10.27,2.6A19.111,19.111,0,0,1,31.16-7.242,20.5,20.5,0,0,1,33.848,3.226a20.486,20.486,0,0,1-2.716,10.5,19.312,19.312,0,0,1-7.356,7.271A20.574,20.574,0,0,1,13.534,23.6Zm0-8.827A9.748,9.748,0,0,0,21.144,11.6,12.029,12.029,0,0,0,24,3.226a12.006,12.006,0,0,0-2.858-8.4,9.791,9.791,0,0,0-7.611-3.14A9.9,9.9,0,0,0,5.866-5.205,11.984,11.984,0,0,0,3.009,3.226a12.006,12.006,0,0,0,2.858,8.4A9.858,9.858,0,0,0,13.534,14.77ZM65.592-3.96a7.237,7.237,0,0,0-3.084-3.027,10.09,10.09,0,0,0-4.725-1.047A9.722,9.722,0,0,0,50.257-4.95a11.7,11.7,0,0,0-2.829,8.233q0,5.489,2.971,8.573a10.82,10.82,0,0,0,8.177,3.084A9.889,9.889,0,0,0,64.6,13.129a10.262,10.262,0,0,0,3.593-5.206H55.916V.793h21.05v9a18.98,18.98,0,0,1-3.65,6.734A19.257,19.257,0,0,1,66.78,21.56a20.2,20.2,0,0,1-8.94,1.924,21.164,21.164,0,0,1-10.5-2.575,18.339,18.339,0,0,1-7.186-7.158A21,21,0,0,1,37.582,3.283a21.164,21.164,0,0,1,2.575-10.5A18.339,18.339,0,0,1,47.315-14.4a21,21,0,0,1,10.468-2.575,20.337,20.337,0,0,1,12.024,3.452A16.289,16.289,0,0,1,76.287-3.96ZM101.128,23.6a20.732,20.732,0,0,1-10.27-2.6,19.458,19.458,0,0,1-7.413-7.271A20.322,20.322,0,0,1,80.7,3.226,20.171,20.171,0,0,1,83.445-7.242a19.519,19.519,0,0,1,7.413-7.243,21.563,21.563,0,0,1,20.54,0,19.111,19.111,0,0,1,7.356,7.243,20.5,20.5,0,0,1,2.688,10.468,20.486,20.486,0,0,1-2.716,10.5,19.312,19.312,0,0,1-7.356,7.271A20.574,20.574,0,0,1,101.128,23.6Zm0-8.827a9.748,9.748,0,0,0,7.611-3.169A12.029,12.029,0,0,0,111.6,3.226a12.006,12.006,0,0,0-2.858-8.4,9.79,9.79,0,0,0-7.611-3.14A9.9,9.9,0,0,0,93.46-5.205,11.984,11.984,0,0,0,90.6,3.226a12.006,12.006,0,0,0,2.858,8.4A9.858,9.858,0,0,0,101.128,14.77Z" transform="translate(32.244 17.088)" fill="#ffc727"/>
</svg>
